Coordinates
version=1
nRows=10
nColumns=23
inDegrees=yes

Units are S.I. units (second, meters, Newtons, ...)
If the header above contains a line with 'inDegrees', this indicates whether rotational values are in degrees (yes) or radians (no).

endheader
time	pelvis_tilt	pelvis_list	pelvis_rotation	pelvis_tx	pelvis_ty	pelvis_tz	hip_flexion_r	hip_adduction_r	hip_rotation_r	knee_angle_r	knee_angle_r_beta	ankle_angle_r	subtalar_angle_r	mtp_angle_r	hip_flexion_l	hip_adduction_l	hip_rotation_l	knee_angle_l	knee_angle_l_beta	ankle_angle_l	subtalar_angle_l	mtp_angle_l
     15.00000000	     -5.72406940	     -4.32321886	     -3.41339075	      2.11062785	      0.88344006	      1.01311293	     35.80547330	      7.34430993	    -13.86818938	     31.38291788	      0.54773525	     -7.27748273	     -5.07234625	      0.00000000	    -16.71130775	     -3.21840644	    -11.48524486	     50.79511759	      0.88654205	    -10.36125728	    -13.44363905	      0.00000000
     15.00666667	     -4.84856269	     -4.83240838	     -3.60224883	      2.11101653	      0.87908615	      1.01276984	     35.01671056	      7.89823886	    -13.70781840	     33.59535040	      0.58634948	     -5.51182089	     -6.25522389	      0.00000000	    -16.90620441	     -3.89012978	    -11.50339949	     53.85390485	      0.93992795	    -10.86142785	    -14.00581652	      0.00000000
     15.01333333	     -4.72704837	     -4.78504696	     -4.02434189	      2.11077509	      0.87322098	      1.01287785	     35.26237192	      8.10671304	    -12.96320924	     36.39152642	      0.63515196	     -2.81307370	     -7.23186795	      0.00000000	    -16.05475559	     -4.03520651	    -11.56597198	     57.20094956	      0.99834491	    -11.08774209	    -14.07769238	      0.00000000
     15.02000000	     -4.15272528	     -5.04498879	     -4.30533920	      2.11059678	      0.86801539	      1.01278855	     34.74616021	      8.58827064	    -12.33071441	     38.85447116	      0.67813845	      0.08301355	     -8.14670337	      0.00000000	    -15.69751436	     -4.51960491	    -11.64075358	     60.43726983	      1.05482935	    -11.39610363	    -14.39470565	      0.00000000
     15.02666667	     -3.32413081	     -5.54778786	     -4.44064507	      2.11036875	      0.86326650	      1.01256311	     33.73101316	      9.29473296	    -11.78327569	     40.98761410	      0.71536882	      3.03101554	     -9.17606747	      0.00000000	    -15.57621301	     -5.29498525	    -11.66204577	     63.62251899	      1.11042243	    -11.65969017	    -14.88159170	      0.00000000
     15.03333333	     -2.99765020	     -5.70406076	     -4.81496011	      2.10954621	      0.85768906	      1.01265237	     33.36739837	      9.78855492	    -11.00316383	     43.34620271	      0.75653396	      6.17085838	     -9.72995746	      0.00000000	    -14.75238808	     -5.74775643	    -11.82008598	     66.93863768	      1.16829962	    -11.52995009	    -15.02713576	      0.00000000
     15.04000000	     -2.27783641	     -6.20281276	     -4.98198896	      2.10873367	      0.85307453	      1.01251029	     32.30339576	     10.56772642	    -10.39961003	     45.19445286	      0.78879201	      8.98521998	    -10.53963086	      0.00000000	    -14.33408982	     -6.55180744	    -11.82169029	     70.10124255	      1.22349749	    -11.39426986	    -15.56018810	      0.00000000
     15.04666667	     -1.95082341	     -6.48957180	     -5.32359780	      2.10737815	      0.84799871	      1.01259051	     31.72756878	     11.20432932	     -9.69646775	     47.11980024	      0.82239566	     11.61525072	    -11.11179103	      0.00000000	    -13.34971571	     -7.20482078	    -11.94167514	     73.34254103	      1.28006882	    -10.86295967	    -15.79093862	      0.00000000
     15.05333333	     -1.25378544	     -6.99017074	     -5.45033316	      2.10602334	      0.84396378	      1.01234165	     30.54490658	     11.91573808	     -9.23585166	     48.64071149	      0.84894057	     13.84680575	    -11.79408927	      0.00000000	    -12.71632583	     -8.04019513	    -11.83731491	     76.37230632	      1.33294820	    -10.39812686	    -16.49449955	      0.00000000
     15.06000000	     -1.26657494	     -7.27694669	     -5.82247430	      2.10410869	      0.83933602	      1.01257025	     30.19741784	     12.61927110	     -8.48129096	     50.20285321	      0.87620508	     16.01850026	    -12.17933500	      0.00000000	    -11.13321707	     -8.75992348	    -11.81592058	     79.53514657	      1.38815018	     -9.46816355	    -16.57358476	      0.00000000
